<?xml version="1.0" encoding="UTF-8"?><svg id="Layer_2" xmlns="http://www.w3.org/2000/svg" viewBox="0 0 1564.65 207.41"><defs><style>.cls-1{fill:#fff;}</style></defs><g id="Layer_5"><path class="cls-1" d="M326.37,141.75c0,36.24-29.38,65.63-65.62,65.63H54.69c-30.2,0-54.69-24.48-54.69-54.69,0-23.6,14.95-43.71,35.9-51.38,1.03-35.83,30.39-64.56,66.47-64.56,6.78,0,13.32,1.02,19.48,2.9C137.48,15.77,164.46,0,195.12,0c45.71,0,83.24,35.05,87.16,79.74,25.67,8.91,44.09,33.31,44.09,62.01Z"/><path class="cls-1" d="M441.89,18.96l27.47,88.58,59.05-88.58h48.53l-32.61,184.86h-46.47l18.49-104.24-39.54,62.13h-33.63l-17.46-62.13-18.49,104.24h-46.21L393.63,18.96h48.27Z"/><path class="cls-1" d="M830.79,18.96c19.51,0,33.38,4.28,41.59,12.84,6.16,6.51,9.24,14.72,9.24,24.65,0,3.43-.34,7.02-1.03,10.78l-3.59,20.03c-2.05,11.13-5.61,20.11-10.65,26.96-5.05,6.85-10.66,11.73-16.82,14.63l23.36,74.97h-51.86l-21.57-69.06h-15.92l-10.53,69.06h-49.3l32.61-184.86h74.46Zm-16.18,40.05h-19.26l-6.68,44.67h17.97c9.07,0,15.57-2.18,19.51-6.55,3.94-4.36,5.91-10.14,5.91-17.33,0-13.86-5.82-20.8-17.46-20.8Z"/><path class="cls-1" d="M1056.22,18.96l-76.1,93.2,43.5,91.66h-48.78l-35.48-67.78h.27l-12.07,67.78h-46.21l32.61-184.86h46.21l-13.61,77.02h-4.12l65.01-77.02h48.78Z"/><path class="cls-1" d="M1213.19,203.82h-135.31l7.19-40.05h.26l99.36-104.75h-81.39l7.19-40.05h135.56l-7.19,40.05-99.36,104.75h80.88l-7.19,40.05Z"/><path class="cls-1" d="M1404.51,18.96l-32.35,184.86h-46.47l11.81-66.75h-50.07l-11.55,66.75h-46.47l32.61-184.86h46.22l-13.86,78.05h50.07l13.86-78.05h46.22Z"/><path class="cls-1" d="M1517.02,190.34c-13.61,11.39-32.82,17.07-57.64,17.07s-42.02-5.73-51.61-17.2c-6.85-7.87-10.27-18.74-10.27-32.61,0-6.16,.68-12.92,2.05-20.28l20.8-118.36h46.21l-20.8,117.33c-.69,4.28-1.03,8.73-1.03,13.35,0,11.98,7.19,17.97,21.57,17.97,8.56,0,15.41-2.22,20.54-6.68,5.13-4.45,8.73-12.66,10.78-24.65l20.8-117.33h46.22l-20.8,118.36c-4.28,23.97-13.22,41.64-26.83,53.02Z"/><g><polygon class="cls-1" points="661.62 63.89 661.67 63.89 607.46 203.82 558.42 203.82 635.22 18.96 703.72 18.96 710.16 203.82 661.38 203.82 661.62 63.89"/><rect class="cls-1" x="607.09" y="129.11" width="71.67" height="34.4"/></g></g></svg>